<mxfile host="app.diagrams.net" modified="2024-03-15T14:17:53.520Z" agent="Mozilla/5.0 (Windows NT 10.0; Win64; x64) AppleWebKit/537.36 (KHTML, like Gecko) Chrome/122.0.0.0 Safari/537.36" version="24.0.7" etag="-IsALaUwQde-uKuUfp6l" type="github">
  <diagram name="Page-1" id="vXCAeOeOAKo6qF7s6QAK">
    <mxGraphModel>
      <root>
        <mxCell id="0" />
        <mxCell id="1" parent="0" />
      </root>
    </mxGraphModel>
  </diagram>
</mxfile>
